<svg width="89" height="37" viewBox="0 0 89 37" fill="none" xmlns="http://www.w3.org/2000/svg">
<path d="M8.15 37L0.75 11.45H8.15L10.7 21.3C10.8167 21.75 10.9417 22.3583 11.075 23.125C11.225 23.875 11.35 24.5667 11.45 25.2C11.5833 24.6 11.7333 23.9167 11.9 23.15C12.0833 22.3667 12.2333 21.75 12.35 21.3L14.85 11.45H21.55L24 21.3C24.1167 21.75 24.2667 22.3667 24.45 23.15C24.6333 23.9167 24.7833 24.6 24.9 25.2C25 24.5667 25.1167 23.875 25.25 23.125C25.4 22.375 25.5333 21.7667 25.65 21.3L28.35 11.45H35.75L28.25 37H21.65L19.15 25.8C19.05 25.3667 18.9083 24.7167 18.725 23.85C18.5417 22.9667 18.3833 22.2 18.25 21.55C18.1333 22.2 17.975 22.9667 17.775 23.85C17.575 24.7167 17.425 25.3667 17.325 25.8L14.8 37H8.15ZM38.7766 37V11.45H46.2766V37H38.7766ZM42.5266 9.2C41.3599 9.2 40.3516 8.775 39.5016 7.925C38.6516 7.075 38.2266 6.06666 38.2266 4.9C38.2266 3.75 38.6432 2.76667 39.4766 1.95C40.3099 1.11667 41.3266 0.699999 42.5266 0.699999C43.7599 0.699999 44.7849 1.10833 45.6016 1.925C46.4182 2.725 46.8266 3.71667 46.8266 4.9C46.8266 6.1 46.4099 7.11667 45.5766 7.95C44.7432 8.78333 43.7266 9.2 42.5266 9.2ZM51.3145 37V11.45H58.8145V13.8C59.6978 12.75 60.6061 12 61.5395 11.55C62.4728 11.0833 63.5478 10.85 64.7645 10.85C66.2978 10.85 67.5645 11.1417 68.5645 11.725C69.5811 12.3083 70.3645 13.2 70.9145 14.4C71.7978 13.25 72.9228 12.375 74.2895 11.775C75.6561 11.1583 77.2145 10.85 78.9645 10.85C82.3478 10.85 84.8311 11.6917 86.4145 13.375C88.0145 15.0583 88.8145 17.7 88.8145 21.3V37H81.3145V24.05C81.3145 21.9167 81.0311 20.3917 80.4645 19.475C79.8978 18.5583 78.9478 18.1 77.6145 18.1C76.6811 18.1 75.9311 18.2833 75.3645 18.65C74.8145 19.0167 74.4145 19.6167 74.1645 20.45C73.9311 21.2833 73.8145 22.4 73.8145 23.8V37H66.3145V24.05C66.3145 21.9167 66.0311 20.3917 65.4645 19.475C64.8978 18.5583 63.9478 18.1 62.6145 18.1C61.2145 18.1 60.2311 18.525 59.6645 19.375C59.0978 20.225 58.8145 21.7 58.8145 23.8V37H51.3145Z" fill="#85BC6B"/>
</svg>
