<svg width="776" height="336" viewBox="0 0 776 336" fill="none" xmlns="http://www.w3.org/2000/svg">
<circle cx="631.5" cy="219.5" r="77.5" fill="#B44C2C"/>
<circle cx="632" cy="219" r="64" stroke="#BE6626" stroke-width="10"/>
<path d="M582 219C582 191.386 604.386 169 632 169" stroke="#F7AD78" stroke-width="10" stroke-linecap="round"/>
<circle cx="709" cy="60" r="50" fill="#B44C2C"/>
<circle cx="709.323" cy="59.6774" r="41.0161" stroke="#BE6626" stroke-width="7"/>
<path d="M677.065 59.6774C677.065 41.8618 691.507 27.4193 709.323 27.4193" stroke="#F7AD78" stroke-width="7" stroke-linecap="round"/>
<circle cx="738.5" cy="156.5" r="37.5" fill="#B44C2C"/>
<circle cx="738.742" cy="156.258" r="30.3871" stroke="#BE6626" stroke-width="6"/>
<path d="M714.548 156.258C714.548 142.896 725.38 132.065 738.742 132.065" stroke="#F7AD78" stroke-width="6" stroke-linecap="round"/>
<path d="M178.5 199C181.333 199 182.75 202.833 182.75 210.5C182.75 214.667 181 219.75 177.5 225.75C174 231.583 169.417 237 163.75 242C158.25 246.833 152.083 250.833 145.25 254C138.417 257.167 131.917 258.75 125.75 258.75C119.583 258.75 114.75 257.583 111.25 255.25C107.75 252.917 105 249.75 103 245.75C100.167 240.083 97.8333 229.333 96 213.5C94.1667 197.5 92.3333 186.333 90.5 180C86.1667 179.167 82.3333 177.5 79 175C75.8333 172.333 74.25 169.167 74.25 165.5C74.25 161.667 75.9167 158.917 79.25 157.25C82.75 155.583 86.6667 154.75 91 154.75C95.5 154.75 99.5 155.833 103 158C107.667 154.167 111.417 149.667 114.25 144.5C117.25 139.167 118.75 132.083 118.75 123.25C118.75 114.25 115.75 107.083 109.75 101.75C103.75 96.4167 94.9167 93.75 83.25 93.75C71.75 93.75 62.9167 94.6667 56.75 96.5C50.5833 98.3333 45.25 100.333 40.75 102.5C36.4167 104.667 32.5 106.667 29 108.5C25.6667 110.333 22.5 111.25 19.5 111.25C16.5 111.25 15 110.333 15 108.5C15 106.5 16.5833 103.333 19.75 99C22.9167 94.6667 27.5833 90.3333 33.75 86C49.25 75.1667 66.75 69.8333 86.25 70C105.75 70 121.833 73.6667 134.5 81C149.333 89.6667 156.75 102.667 156.75 120C156.917 134.333 153.167 146.25 145.5 155.75C137.833 165.25 128.333 172.083 117 176.25C119.5 181.75 121.5 187.667 123 194C124.667 200.333 126.25 206.167 127.75 211.5C129.25 216.833 130.917 221.25 132.75 224.75C134.75 228.25 137.083 230 139.75 230C142.583 230 145.917 228.417 149.75 225.25C153.75 221.917 157.667 218.333 161.5 214.5C165.333 210.667 168.75 207.167 171.75 204C174.917 200.667 177.167 199 178.5 199ZM69.75 109C71.9167 109 73 111.833 73 117.5C73 123.167 72.6667 128.5 72 133.5C70.5 143.167 68.5833 152.167 66.25 160.5C60.25 183.167 57.25 196.417 57.25 200.25V237C57.25 246 53.8333 252.167 47 255.5C43.8333 257 40.75 258.417 37.75 259.75C34.9167 261.083 31.6667 261.75 28 261.75C21 261.75 17.5 253.75 17.5 237.75C17.5 221.583 21.25 201.25 28.75 176.75C36.25 152.25 44.0833 133.583 52.25 120.75C53.9167 118.25 56.3333 115.667 59.5 113C62.6667 110.333 66.0833 109 69.75 109ZM248.092 152.5C248.092 141.333 256.758 135.75 274.092 135.75C278.425 135.75 281.092 137.167 282.092 140C283.258 142.833 283.842 147.167 283.842 153C283.842 161.167 282.008 173.833 278.342 191C274.675 208.167 272.925 219.75 273.092 225.75C273.092 228.583 274.008 230 275.842 230C278.342 230 281.425 228.417 285.092 225.25C288.758 222.083 292.425 218.667 296.092 215C299.758 211.167 303.092 207.667 306.092 204.5C309.258 201.333 311.425 199.75 312.592 199.75C314.925 199.75 316.092 202.583 316.092 208.25C316.092 219.917 310.342 231.167 298.842 242C279.508 253.333 267.258 259 262.092 259C261.592 259 261.175 258.917 260.842 258.75C254.508 258.75 250.008 256.667 247.342 252.5C244.842 248.333 243.258 243.083 242.592 236.75C239.258 242.917 234.675 248.25 228.842 252.75C223.008 257.083 216.342 259.25 208.842 259.25C195.675 259.25 185.508 256.75 178.342 251.75C171.342 246.75 167.842 239.333 167.842 229.5C167.842 225.167 168.425 221.167 169.592 217.5C170.925 213.833 173.008 209.333 175.842 204L183.092 142.5C188.258 138.5 195.675 136.5 205.342 136.5C213.008 136.5 217.342 141.5 218.342 151.5C219.175 159.667 218.758 167 217.092 173.5C215.592 179.833 213.508 187.917 210.842 197.75C208.175 207.417 206.842 216 206.842 223.5C206.842 229.5 210.592 232.5 218.092 232.5C226.258 232.5 233.342 225.333 239.342 211C244.008 200 247.175 187.75 248.842 174.25C248.675 172.917 248.508 171.25 248.342 169.25C248.342 167.083 248.258 165 248.092 163C248.092 161 248.092 159 248.092 157V152.5ZM440.643 182C440.643 176.5 437.476 173.75 431.143 173.75C426.809 173.75 421.976 178 416.643 186.5C411.309 194.833 407.476 203.833 405.143 213.5V214C405.143 219.667 405.976 225.5 407.643 231.5C409.476 237.5 410.393 241.667 410.393 244C410.393 249.667 403.309 255.25 389.143 260.75C386.976 261.583 385.059 262 383.393 262C379.226 262 376.309 259.833 374.643 255.5C373.143 251.167 372.393 245.333 372.393 238C372.393 230.5 372.559 223.5 372.893 217C373.393 210.333 373.809 204.25 374.143 198.75C374.643 193.083 375.059 188.167 375.393 184C375.893 179.667 376.143 176.167 376.143 173.5C376.143 167.833 373.559 165 368.393 165C363.226 165 357.226 171.083 350.393 183.25C343.559 195.25 340.143 204.833 340.143 212C340.143 219 340.976 225.5 342.643 231.5C344.476 237.5 345.393 241.667 345.393 244C345.393 249.667 338.309 255.25 324.143 260.75C321.976 261.583 320.059 262 318.393 262C314.226 262 311.309 259.833 309.643 255.5C308.143 251.167 307.393 244.5 307.393 235.5C307.393 211.833 308.309 194.75 310.143 184.25C312.643 168.75 318.309 154.083 327.143 140.25C330.143 135.583 333.393 133.25 336.893 133.25C342.393 133.25 347.476 137.75 352.143 146.75C353.476 149.083 354.476 151.25 355.143 153.25C363.143 143.25 372.559 138.25 383.393 138.25C390.559 138.25 396.976 140.667 402.643 145.5C408.309 150.167 411.143 156.083 411.143 163.25V166C421.309 153.333 433.726 147 448.393 147C457.393 147 464.226 149.333 468.893 154C473.559 158.667 475.893 164.417 475.893 171.25C475.893 178.083 475.393 184.25 474.393 189.75C473.393 195.25 472.226 200.417 470.893 205.25C469.726 210.083 468.643 214.417 467.643 218.25C466.643 221.917 466.143 224.833 466.143 227C466.143 229 466.809 230 468.143 230C470.643 230 473.726 228.417 477.393 225.25C481.059 222.083 484.726 218.667 488.393 215C492.059 211.167 495.393 207.667 498.393 204.5C501.559 201.333 503.726 199.75 504.893 199.75C507.226 199.75 508.393 202.583 508.393 208.25C508.393 219.917 502.476 231.25 490.643 242.25C478.976 253.25 466.476 258.75 453.143 258.75C441.143 258.75 435.143 247.833 435.143 226C435.143 220.5 436.059 212.917 437.893 203.25C439.726 193.583 440.643 186.5 440.643 182Z" fill="#E4E4E4"/>
</svg>
